<svg height="24" viewBox="0 0 24 24" width="24" xmlns="http://www.w3.org/2000/svg" xmlns:xlink="http://www.w3.org/1999/xlink"><clipPath id="a"><path d="m0 0h24v24h-24z"/></clipPath><g clip-path="url(#a)"><path d="m20.628 12.193h1.085l-2.638-2.545v1.083a1.481 1.481 0 0 0 .3 1.217c.308.295.789.239 1.253.245z" fill="none" transform="translate(-.597 -6.221)"/><path d="m18.1 13.706c-.186 0-.338.2-.338.456s.152.456.338.456.34-.2.34-.456-.153-.456-.34-.456z" fill="#000000" transform="translate(-1.905 -2.155)"/><path d="m10.148 19.3a11.633 11.633 0 0 0 2.292 6.933c-.052-4.583-.072-9.166-.086-13.749a11.614 11.614 0 0 0 -2.206 6.816z" fill="#000000" transform="translate(-9.533 -3.378)"/><path d="m14.186 13.706c-.186 0-.34.2-.34.456s.154.456.34.456.34-.2.34-.456-.151-.456-.34-.456z" fill="#000000" transform="translate(-5.827 -2.155)"/><path d="m23.116 19.49a11.645 11.645 0 0 0 -2.487-7.19c-.014 4.835-.03 9.668-.086 14.5a11.641 11.641 0 0 0 2.573-7.31z" fill="#000000" transform="translate(.884 -3.568)"/><path d="m29.961 12.422-3.045-2.941v-.042h-.116l-8.039-.014-4.018.014-2.01.008a1.52 1.52 0 0 0 -1 .352 1.5 1.5 0 0 0 -.485.947v.006l.018 4.8c.014 4.583.034 9.166.086 13.749l.01.01c.052-4.669.072-9.338.088-14.005q.006-2.27.014-4.541a1.229 1.229 0 0 1 1.273-1.089l2.008.006 4.018.012 7.919-.012v1.271a1.692 1.692 0 0 0 .384 1.386 1.968 1.968 0 0 0 1.406.292h1.291c0 .771.012 1.542.014 2.313.014 4.913.03 9.827.088 14.738.056-4.833.072-9.666.086-14.5 0-.883.014-1.766.016-2.649v-.1zm-1.492-.006c-.465-.006-.945.05-1.253-.244a1.481 1.481 0 0 1 -.3-1.217v-1.083l2.639 2.549z" fill="#313133" transform="translate(-8.438 -6.445)"/><g fill="#000000"><path d="m14.86 13.4a.89.89 0 0 0 .178-.465 1.638 1.638 0 0 1 -.691.5 2.719 2.719 0 0 1 -.871.12 1.071 1.071 0 0 0 .965.146.959.959 0 0 0 .419-.301z" transform="translate(-6.197 -2.928)"/><path d="m17.689 12.921a.963.963 0 0 0 .579.779 1.042 1.042 0 0 0 .511.066.991.991 0 0 0 .454-.184 2.178 2.178 0 0 1 -.855-.14 2 2 0 0 1 -.689-.521z" transform="translate(-1.976 -2.941)"/><path d="m15.974 15.151a3.9 3.9 0 0 1 -.523-.412 1.338 1.338 0 0 0 1.061.9.933.933 0 0 0 .693-.29 1.54 1.54 0 0 0 .352-.607c-.32.322-.653.655-1.031.617a1.072 1.072 0 0 1 -.552-.208z" transform="translate(-4.219 -1.119)"/><path d="m14.327 13.565a.75.75 0 1 0 .623.739.689.689 0 0 0 -.623-.739z" transform="translate(-5.968 -2.296)"/><path d="m14.186 14.619c-.186 0-.34-.2-.34-.456s.154-.456.34-.456.34.2.34.456-.151.456-.34.456z" transform="translate(-5.827 -2.155)"/><path d="m18.24 13.565a.75.75 0 1 0 .623.739.689.689 0 0 0 -.623-.739z" transform="translate(-2.046 -2.296)"/><path d="m18.1 14.619c-.186 0-.338-.2-.338-.456s.152-.456.338-.456.34.2.34.456-.153.456-.34.456z" transform="translate(-1.905 -2.155)"/></g><path d="m11.453 9.848a2.387 2.387 0 0 0 -1.612 0 2.277 2.277 0 0 0 .807.14 2.23 2.23 0 0 0 .805-.14z" fill="#313133" transform="translate(-9.841 -6.161)"/><path d="m11.77 8.8a2.578 2.578 0 0 0 -.142-.849 2.576 2.576 0 0 0 -.14.849 2.516 2.516 0 0 0 .14.849 2.471 2.471 0 0 0 .142-.849z" fill="#313133" transform="translate(-8.19 -7.92)"/><path d="m11.481 9.669a2.291 2.291 0 0 0 -1.121-1.121 2.23 2.23 0 0 0 .463.659 2.194 2.194 0 0 0 .658.462z" fill="#313133" transform="translate(-9.321 -7.324)"/><path d="m22.819 18.012h-10.075a.172.172 0 1 1 0-.344h10.075a.172.172 0 0 1 0 .344z" fill="#000000" opacity=".2" transform="translate(-7.106 1.816)"/><path d="m25.4 18.616h-12.656a.172.172 0 1 1 0-.344h12.656a.172.172 0 0 1 0 .344z" fill="#000000" opacity=".2" transform="translate(-7.106 2.421)"/><path d="m18.1 19.221h-5.356a.173.173 0 1 1 0-.346h5.356a.173.173 0 0 1 0 .346z" fill="#000000" opacity=".2" transform="translate(-7.106 3.026)"/></g></svg>